<?xml version="1.0" encoding="UTF-8"?>
<svg id="Layer_2" data-name="Layer 2" xmlns="http://www.w3.org/2000/svg" viewBox="0 0 500 500">
  <defs>
    <style>
      .cls-1 {
        fill: none;
      }

      .cls-1, .cls-2 {
        stroke-width: 0px;
      }

      .cls-2 {
        fill: #231f20;
      }
    </style>
  </defs>
  <g id="Layer_1-2" data-name="Layer 1">
    <g>
      <path class="cls-2" d="m52.5,2.5h50v95H2.5v-45C2.5,24.9,24.9,2.5,52.5,2.5Z"/>
      <rect class="cls-1" width="100" height="100"/>
      <path class="cls-2" d="m2.5,93.2h95v59.3c0,24.84-20.16,45-45,45h0c-27.6,0-50-22.4-50-50v-54.3h0Z"/>
      <rect class="cls-1" y="100" width="100" height="100"/>
      <path class="cls-2" d="m102.5,2.5h45c27.6,0,50,22.4,50,50h0c0,24.84-20.16,45-45,45h-50V2.5h0Z"/>
      <rect class="cls-1" x="100" width="100" height="100"/>
      <path class="cls-2" d="m402.5,97.5h95v55c0,24.84-20.16,45-45,45h0c-27.6,0-50-22.4-50-50v-50h0Z"/>
      <rect class="cls-1" x="400" y="100" width="100" height="100"/>
      <path class="cls-2" d="m397.5,2.5h50c27.6,0,50,22.4,50,50v45h-100V2.5h0Z"/>
      <rect class="cls-1" x="400" width="100" height="100"/>
      <path class="cls-2" d="m252.5,202.5h0c24.84,0,45,20.16,45,45v55h-95v-50c0-27.6,22.4-50,50-50Z"/>
      <rect class="cls-1" x="200" y="200" width="100" height="100"/>
      <path class="cls-2" d="m352.5,2.5h45v95h-50c-24.84,0-45-20.16-45-45h0c0-27.6,22.4-50,50-50Z"/>
      <rect class="cls-1" x="300" width="100" height="100"/>
      <path class="cls-2" d="m452.5,302.5h0c24.84,0,45,20.16,45,45v55h-95v-50c0-27.6,22.4-50,50-50Z"/>
      <rect class="cls-1" x="400" y="300" width="100" height="100"/>
      <g>
        <rect class="cls-2" x="197.04" y="302.5" width="100.32" height="95"/>
        <rect class="cls-1" x="194.4" y="300" width="105.6" height="100"/>
      </g>
      <rect class="cls-2" x="102.5" y="302.5" width="95" height="95"/>
      <rect class="cls-1" x="100" y="300" width="100" height="100"/>
      <path class="cls-2" d="m52.5,302.5h50v95h-55c-24.84,0-45-20.16-45-45h0c0-27.6,22.4-50,50-50Z"/>
      <rect class="cls-1" y="300" width="100" height="100"/>
      <path class="cls-2" d="m202.5,394.62h95v102.88h-50c-24.84,0-45-20.16-45-45v-57.88h0Z"/>
      <rect class="cls-1" x="200" y="400" width="100" height="100"/>
      <g>
        <rect class="cls-2" x="297.33" y="402.5" width="107.88" height="95"/>
        <rect class="cls-1" x="294.5" y="400" width="113.56" height="100"/>
      </g>
      <path class="cls-2" d="m402.5,402.5h95v45c0,27.6-22.4,50-50,50h-45v-95h0Z"/>
      <rect class="cls-1" x="400" y="400" width="100" height="100"/>
    </g>
  </g>
</svg>