<svg xmlns="http://www.w3.org/2000/svg" viewBox="0 0 272 272" ><g id="Layer_2" data-name="Layer 2"><g id="Layer_1-2" data-name="Layer 1"><path d="M3.5,114.5a3,3,0,0,1-3-3V3.5A3,3,0,0,1,1,1.83,3.2,3.2,0,0,1,1.83,1,3,3,0,0,1,3.5.5h108a3,3,0,0,1,0,6H6.5v105A3,3,0,0,1,3.5,114.5Z"/><path d="M111.5,1a2.5,2.5,0,0,1,0,5H6V111.5a2.5,2.5,0,0,1-5,0V3.5A2.52,2.52,0,0,1,2.11,1.43,2.45,2.45,0,0,1,3.5,1h108m0-1H3.5A3.46,3.46,0,0,0,1.55.6a3.31,3.31,0,0,0-.95,1,3.46,3.46,0,0,0-.6,2v108a3.5,3.5,0,0,0,7,0V7H111.5a3.5,3.5,0,0,0,0-7Z"/><path d="M160.5,271.5a3,3,0,0,1,0-6h105v-105a3,3,0,0,1,6,0v108a3,3,0,0,1-.51,1.67,3.2,3.2,0,0,1-.82.82,3,3,0,0,1-1.67.51Z"/><path d="M268.5,158a2.5,2.5,0,0,1,2.5,2.5v108a2.52,2.52,0,0,1-2.5,2.5h-108a2.5,2.5,0,0,1,0-5H266V160.5a2.5,2.5,0,0,1,2.5-2.5m0-1a3.52,3.52,0,0,0-3.5,3.5V265H160.5a3.5,3.5,0,0,0,0,7h108a3.46,3.46,0,0,0,1.95-.6,3.31,3.31,0,0,0,.95-.95,3.46,3.46,0,0,0,.6-1.95v-108a3.52,3.52,0,0,0-3.5-3.5Z"/></g></g></svg>