<svg width="517" height="56" viewBox="0 0 517 56" fill="none" xmlns="http://www.w3.org/2000/svg">
<path d="M17.6051 55.9893C15.2932 55.9894 13.0044 55.5344 10.8684 54.6496C8.73248 53.7648 6.79172 52.4667 5.15694 50.8317C3.52217 49.1967 2.22419 47.2557 1.33952 45.1195C0.454844 42.9833 -0.000131275 40.6942 2.84311e-08 38.382V17.6033C-0.000131314 15.2912 0.45482 13.002 1.33952 10.8659C2.22421 8.72975 3.52214 6.78848 5.15694 5.15367C6.79174 3.51886 8.73249 2.22229 10.8684 1.33773C13.0044 0.453166 15.2933 -0.000392585 17.6051 1.39405e-06H38.3813C40.6931 -0.000918398 42.9818 0.453328 45.1179 1.33773C47.254 2.22213 49.1946 3.51872 50.8294 5.15367C52.4641 6.78861 53.7606 8.72953 54.6449 10.8659C55.5292 13.0022 55.9833 15.2912 55.9824 17.6033V55.9893H17.6051ZM8.01953 17.6033V38.382C8.02429 40.9226 9.03454 43.3568 10.8313 45.1527C12.6281 46.9486 15.0648 47.9597 17.6051 47.9629H47.9609V17.6033C47.9578 15.0627 46.9468 12.6258 45.1511 10.8288C43.3554 9.03174 40.9215 8.02136 38.3813 8.0166H17.6051C15.0638 8.01978 12.6264 9.02961 10.8294 10.8268C9.03242 12.624 8.0227 15.0617 8.01953 17.6033ZM21.0984 40.1318C19.708 40.1316 18.3734 39.5782 17.3903 38.5949C16.4071 37.6116 15.8558 36.2789 15.8555 34.8883V21.099C15.8551 20.4102 15.9905 19.7279 16.2538 19.0914C16.5172 18.455 16.9034 17.8756 17.3903 17.3885C17.8772 16.9014 18.4548 16.5155 19.091 16.2519C19.7273 15.9883 20.4097 15.8534 21.0984 15.8535H34.886C35.5748 15.8534 36.257 15.9884 36.8933 16.2519C37.5297 16.5155 38.107 16.9014 38.5941 17.3885C39.0811 17.8756 39.467 18.455 39.7305 19.0914C39.9941 19.7279 40.131 20.4101 40.1308 21.099V40.1318H21.0984Z" fill="#00BFFF"/>
<path d="M91.8822 49.1567C89.6694 47.7304 87.9191 45.7088 86.839 43.3325C85.2472 43.0111 83.7294 42.407 82.3585 41.5483C81.0151 40.6715 79.8515 39.5529 78.9269 38.2534C77.9408 36.8446 77.2068 35.2786 76.7596 33.6255C76.2359 31.7206 75.9814 29.7541 76.0024 27.7808C75.9676 25.5301 76.3107 23.2909 77.0166 21.1499C77.6154 19.3426 78.592 17.6809 79.8855 16.269C81.1076 14.939 82.6209 13.8985 84.3105 13.2271C87.9798 11.8418 92.0405 11.8418 95.7098 13.2271C97.3949 13.9164 98.9059 14.9619 100.135 16.2896C101.408 17.7179 102.379 19.3859 102.983 21.1909C103.695 23.3166 104.044 25.5428 104.018 27.7808C104.165 31.3323 103.237 34.846 101.35 37.8774C99.7121 40.4267 97.1627 42.2862 94.2093 43.0933C94.9037 44.1336 95.9343 44.9133 97.1338 45.3081C98.3651 45.7256 99.6591 45.9374 100.961 45.937C101.59 45.9467 102.219 45.8942 102.837 45.7798C103.358 45.6889 103.871 45.5579 104.372 45.3901L105.609 50.4077C104.894 50.7288 104.143 50.968 103.372 51.1118C102.316 51.3044 101.25 51.3984 100.176 51.3921C97.2473 51.4877 94.3536 50.7069 91.8822 49.1567ZM84.9912 20.6577C83.6382 22.7854 82.9959 25.275 83.1435 27.7808C82.987 30.4346 83.6265 33.0746 84.9912 35.3687C85.5274 36.1976 86.2693 36.8783 87.1447 37.3511C88.02 37.8239 89.0012 38.0757 89.9997 38.0757C90.9982 38.0757 91.9794 37.8239 92.8548 37.3511C93.7301 36.8783 94.472 36.1976 95.0082 35.3687C96.3729 33.0746 97.0193 30.4346 96.8629 27.7808C97.0105 25.275 96.3612 22.7854 95.0082 20.6577C94.4439 19.8663 93.6917 19.217 92.82 18.771C91.9484 18.325 90.9822 18.0942 89.9997 18.0942C89.0173 18.0942 88.0511 18.325 87.1794 18.771C86.3077 19.217 85.5555 19.8663 84.9912 20.6577ZM416.175 42.8403C414.805 42.3064 413.557 41.5069 412.508 40.4888C411.408 39.4079 410.541 38.1198 409.958 36.7017C408.708 33.3808 408.708 29.7276 409.958 26.4067C410.541 24.9886 411.408 23.7005 412.508 22.6196C413.554 21.597 414.802 20.797 416.175 20.2681C418.929 19.1743 422.007 19.1743 424.761 20.2681C426.158 20.8267 427.426 21.66 428.485 22.7153C429.544 23.7707 430.373 25.0258 430.923 26.4067C432.191 29.7244 432.191 33.384 430.923 36.7017C430.361 38.1269 429.496 39.418 428.387 40.4888C427.345 41.4975 426.115 42.296 424.761 42.8403C422.007 43.9341 418.929 43.9341 416.175 42.8403ZM417.245 26.7622C416.55 28.2668 416.189 29.9012 416.189 31.5542C416.189 33.2072 416.55 34.8416 417.245 36.3462C417.585 36.8875 418.056 37.3351 418.621 37.645C419.185 37.9549 419.822 38.1167 420.468 38.1167C421.115 38.1167 421.752 37.9549 422.316 37.645C422.881 37.3351 423.359 36.8875 423.699 36.3462C424.421 34.8489 424.796 33.2117 424.796 31.5542C424.796 29.8967 424.421 28.2595 423.699 26.7622C423.359 26.2209 422.881 25.7733 422.316 25.4634C421.752 25.1535 421.115 24.9917 420.468 24.9917C419.822 24.9917 419.185 25.1535 418.621 25.4634C418.056 25.7733 417.585 26.2209 417.245 26.7622ZM399.031 42.9976C398.06 42.6032 397.199 41.985 396.524 41.1929C395.847 40.3637 395.361 39.4013 395.1 38.3696C394.785 37.1777 394.632 35.9506 394.641 34.7192V25.3677H391.439V20.2886L395.023 20.0151L395.843 13.856H401.602V20.0151H407.242V25.3677H401.602V34.6235C401.502 35.6362 401.804 36.6464 402.442 37.4468C402.725 37.7335 403.065 37.9547 403.442 38.103C403.819 38.2514 404.225 38.3239 404.63 38.3081C405.025 38.3024 405.419 38.2564 405.804 38.1714C406.167 38.0768 406.519 37.9612 406.867 37.8228L407.971 42.8062C407.331 42.9847 406.595 43.181 405.742 43.3735C404.758 43.5654 403.75 43.6573 402.748 43.647C401.47 43.693 400.202 43.4704 399.017 42.9976H399.031ZM372.607 43.1343C371.789 42.786 371.051 42.2744 370.439 41.6372C369.828 41 369.357 40.252 369.05 39.4292C368.707 38.5529 368.538 37.62 368.55 36.6812C368.517 35.5464 368.786 34.4189 369.335 33.4204C369.884 32.4219 370.693 31.5876 371.676 30.9937C374.772 29.3298 378.217 28.3913 381.741 28.2524C381.727 27.3532 381.389 26.4897 380.797 25.8052C380.427 25.4755 379.992 25.2223 379.518 25.0669C379.045 24.9115 378.549 24.851 378.053 24.896C377.016 24.9039 375.984 25.0964 375.017 25.4634C373.901 25.8852 372.83 26.403 371.801 27.0015L369.349 22.4897C370.848 21.5884 372.444 20.8527 374.107 20.2954C375.801 19.7254 377.582 19.4406 379.373 19.4546C380.644 19.3694 381.915 19.5516 383.11 19.9878C384.305 20.424 385.391 21.1032 386.298 21.9839C388.071 24.2314 388.931 27.0505 388.695 29.8862V43.1001H382.999L382.485 40.728H382.346C381.379 41.5705 380.301 42.2774 379.143 42.8403C378.003 43.3909 376.746 43.6727 375.475 43.6606C374.489 43.6782 373.507 43.5005 372.593 43.1343H372.607ZM376.573 33.8374C376.156 34.0738 375.808 34.4097 375.559 34.8149C375.31 35.2201 375.168 35.6817 375.149 36.1548C375.121 36.472 375.172 36.7928 375.302 37.0845C375.432 37.3761 375.636 37.6278 375.892 37.8228C376.47 38.1978 377.153 38.3831 377.844 38.3491C378.576 38.37 379.299 38.1916 379.935 37.8364C380.584 37.4244 381.181 36.9378 381.714 36.3872V32.3472C379.906 32.4696 378.147 32.9799 376.559 33.8374H376.573ZM335.123 42.8403C333.693 42.3101 332.391 41.4893 331.309 40.4272C330.228 39.3652 329.392 38.087 328.85 36.6812C328.225 35.0407 327.921 33.2992 327.954 31.5474C327.925 29.8216 328.243 28.1058 328.892 26.5024C329.462 25.0815 330.305 23.784 331.379 22.6812C332.374 21.6515 333.576 20.8377 334.908 20.2886C336.201 19.7297 337.6 19.4427 339.013 19.4478C340.518 19.4121 342.015 19.6995 343.396 20.2886C344.605 20.8217 345.674 21.6189 346.522 22.6196C347.375 23.6501 348.001 24.8411 348.37 26.1196C348.794 27.5447 349.009 29.0233 348.995 30.5083C349.005 31.0792 348.971 31.6441 348.898 32.2105C348.834 32.7215 348.774 33.1196 348.717 33.4136H334.664C334.831 34.908 335.583 36.2787 336.762 37.2349C337.925 38.0583 339.332 38.4785 340.764 38.4312C342.563 38.3964 344.317 37.8695 345.828 36.9067L348.141 41.0425C346.912 41.8621 345.569 42.5022 344.153 42.9429C342.757 43.4001 341.297 43.6336 339.826 43.6401C338.218 43.6596 336.617 43.3896 335.109 42.8403H335.123ZM336.241 25.7573C335.314 26.6832 334.738 27.8955 334.609 29.189H343.077C343.129 28.032 342.816 26.8822 342.181 25.9077C341.82 25.4694 341.348 25.1277 340.819 24.9097C340.29 24.6916 339.716 24.6094 339.145 24.6636C338.066 24.6551 337.027 25.0444 336.227 25.7573H336.241ZM285.976 42.8403C284.541 42.3148 283.241 41.4897 282.155 40.4272C281.07 39.3648 280.225 38.0904 279.682 36.6812C279.057 35.0407 278.753 33.2992 278.786 31.5474C278.767 29.8224 279.085 28.1086 279.724 26.5024C280.302 25.0855 281.151 23.7894 282.218 22.6812C283.217 21.6559 284.418 20.8428 285.747 20.2886C287.04 19.7297 288.44 19.4427 289.852 19.4478C291.358 19.4096 292.848 19.6972 294.229 20.2886C295.444 20.8109 296.515 21.6099 297.355 22.6196C298.215 23.6488 298.854 24.8397 299.23 26.1196C299.637 27.5479 299.838 29.025 299.827 30.5083C299.833 31.0785 299.806 31.6428 299.751 32.2105C299.669 32.7215 299.628 33.1196 299.55 33.4136H285.504C285.583 34.1562 285.815 34.8768 286.177 35.5327C286.54 36.1886 287.025 36.7662 287.615 37.2349C288.77 38.0589 290.171 38.4795 291.596 38.4312C293.395 38.3964 295.156 37.8695 296.667 36.9067L298.994 41.0425C297.758 41.8636 296.408 42.5037 294.986 42.9429C293.592 43.3995 292.134 43.633 290.665 43.6401C289.062 43.6596 287.472 43.3896 285.969 42.8403H285.976ZM287.094 25.7573C286.147 26.6689 285.567 27.889 285.462 29.189H293.93C293.982 28.032 293.67 26.8822 293.034 25.9077C292.67 25.4722 292.207 25.1343 291.679 24.9165C291.151 24.6987 290.575 24.6131 290.005 24.6636C288.926 24.6486 287.882 25.0389 287.087 25.7573H287.094ZM259.114 42.6626C257.337 42.0205 255.722 41.0118 254.376 39.7026C252.965 38.3256 251.879 36.6594 251.181 34.8286C250.38 32.6774 249.988 30.3996 250.028 28.1089C249.982 25.8098 250.394 23.5247 251.243 21.3823C251.968 19.5095 253.079 17.8062 254.508 16.3784C255.867 15.0011 257.512 13.9256 259.329 13.2271C261.204 12.5191 263.191 12.1671 265.199 12.1812C267.159 12.1262 269.102 12.5432 270.86 13.3979C272.311 14.0933 273.638 15.0225 274.778 16.146L270.958 20.3774C270.253 19.6972 269.445 19.1286 268.561 18.6958C267.54 18.2572 266.431 18.0497 265.317 18.0874C264.181 18.0826 263.057 18.3187 262.024 18.7847C261.037 19.2364 260.154 19.8979 259.447 20.7124C258.679 21.6155 258.109 22.6649 257.773 23.7954C257.359 25.1216 257.158 26.5029 257.176 27.8901C257.011 30.4935 257.774 33.072 259.329 35.1841C260.141 36.0714 261.149 36.7622 262.274 37.2075C263.4 37.6528 264.614 37.8352 265.824 37.7476C266.449 37.7507 267.074 37.6784 267.679 37.522C268.215 37.3944 268.717 37.1517 269.151 36.8179V31.6021H264.032V26.0034H275.292V39.9624C274.027 41.0974 272.554 41.984 270.951 42.5737C269.051 43.3022 267.029 43.6656 264.99 43.647C262.985 43.6695 260.991 43.3377 259.107 42.6626H259.114ZM226.458 42.8403C225.023 42.3133 223.723 41.4895 222.637 40.4272C221.551 39.365 220.702 38.0896 220.157 36.6812C219.532 35.0407 219.228 33.2992 219.261 31.5474C219.239 29.8202 219.57 28.1044 220.227 26.5024C220.796 25.0812 221.639 23.7836 222.714 22.6812C223.71 21.6561 224.909 20.8429 226.236 20.2886C227.58 19.7331 229.022 19.4409 230.48 19.4409C231.938 19.4409 233.38 19.7331 234.724 20.2886C235.94 20.8125 237.013 21.6111 237.857 22.6196C238.712 23.6509 239.349 24.8413 239.726 26.1196C240.144 27.5462 240.351 29.0238 240.344 30.5083C240.347 31.079 240.313 31.6435 240.247 32.2105C240.172 32.7215 240.109 33.1196 240.066 33.4136H225.999C226.162 34.9125 226.921 36.2863 228.111 37.2349C229.267 38.0604 230.671 38.481 232.099 38.4312C233.902 38.3946 235.66 37.8679 237.176 36.9067L239.49 41.0425C238.257 41.8688 236.906 42.5093 235.482 42.9429C234.088 43.4016 232.63 43.6352 231.161 43.6401C229.553 43.6628 227.958 43.3927 226.451 42.8403H226.458ZM227.569 25.7573C226.632 26.6761 226.054 27.8923 225.937 29.189H234.405C234.457 28.032 234.144 26.8822 233.509 25.9077C233.147 25.4703 232.683 25.1276 232.154 24.9097C231.626 24.6917 231.051 24.6106 230.48 24.6636C229.401 24.6523 228.36 25.042 227.562 25.7573H227.569ZM198.901 42.8198C197.719 42.2594 196.684 41.442 195.872 40.4272C194.99 39.2961 194.332 38.0112 193.934 36.6401C193.446 34.9859 193.202 33.2699 193.219 31.5474C193.191 29.8241 193.474 28.1087 194.052 26.4819C194.538 25.0964 195.275 23.8089 196.227 22.6812C197.078 21.668 198.145 20.8523 199.352 20.2886C200.475 19.7373 201.71 19.449 202.965 19.4478C204.092 19.4 205.213 19.622 206.23 20.104C207.144 20.5725 207.99 21.1612 208.744 21.854L208.459 18.3062V10.4448H215.413V43.0728H209.724L209.244 40.7964H209.064C208.214 41.6141 207.237 42.297 206.174 42.8198C205.135 43.349 203.982 43.6309 202.812 43.6401C201.459 43.6655 200.119 43.3863 198.894 42.8198H198.901ZM201.666 26.605C200.699 28.0389 200.25 29.7504 200.394 31.4653C200.256 33.2072 200.634 34.9497 201.485 36.4829C201.829 36.9913 202.301 37.4073 202.854 37.686C203.406 37.9648 204.025 38.0974 204.646 38.0757C205.364 38.0849 206.075 37.9236 206.716 37.604C207.431 37.2073 208.04 36.6502 208.494 35.9771V26.523C207.93 26.0106 207.259 25.6241 206.535 25.3745C205.916 25.1535 205.263 25.0298 204.604 25.019C204.021 25.0371 203.456 25.1886 202.944 25.4634C202.432 25.7382 201.99 26.1325 201.659 26.605H201.666ZM174.928 42.8403C173.561 42.3014 172.314 41.5025 171.261 40.4888C170.165 39.4071 169.303 38.119 168.725 36.7017C167.484 33.3791 167.484 29.7293 168.725 26.4067C169.303 24.9894 170.165 23.7013 171.261 22.6196C172.31 21.6014 173.558 20.8019 174.928 20.2681C176.295 19.7264 177.755 19.447 179.228 19.4478C180.697 19.4438 182.153 19.7233 183.514 20.2681C184.878 20.8024 186.119 21.6019 187.161 22.6196C188.261 23.6962 189.122 24.9859 189.69 26.4067C190.968 29.7227 190.968 33.3857 189.69 36.7017C188.858 38.7612 187.415 40.526 185.55 41.7671C183.684 43.0082 181.48 43.6689 179.228 43.6606C177.754 43.6618 176.289 43.3824 174.921 42.8403H174.928ZM175.991 26.7622C175.282 28.2632 174.914 29.8989 174.914 31.5542C174.914 33.2095 175.282 34.8452 175.991 36.3462C176.308 36.9072 176.776 37.3663 177.346 37.6792C177.915 37.9921 178.563 38.1459 179.214 38.1167C179.866 38.1412 180.513 37.9847 181.083 37.6724C181.653 37.36 182.123 36.9043 182.445 36.3462C183.154 34.8452 183.521 33.2095 183.521 31.5542C183.521 29.8989 183.154 28.2632 182.445 26.7622C182.123 26.2041 181.653 25.7415 181.083 25.4292C180.513 25.1169 179.866 24.9672 179.214 24.9917C178.564 24.9632 177.921 25.1095 177.353 25.4224C176.784 25.7352 176.314 26.2017 175.998 26.7622H175.991ZM151.275 42.6626C149.534 42.0168 147.961 41.0076 146.656 39.7026C145.275 38.3163 144.209 36.6513 143.53 34.8286C142.734 32.6765 142.347 30.3987 142.391 28.1089C142.352 25.8123 142.757 23.5298 143.585 21.3823C144.289 19.5142 145.381 17.8111 146.788 16.3784C148.103 15.0133 149.7 13.9381 151.47 13.2271C153.264 12.5231 155.179 12.1706 157.11 12.1812C158.929 12.159 160.726 12.5618 162.355 13.3569C163.799 14.0851 165.117 15.0256 166.266 16.1528L162.418 20.3843C161.708 19.7133 160.903 19.1526 160.028 18.7095C159.154 18.2917 158.193 18.0837 157.222 18.1011C156.175 18.1014 155.143 18.3383 154.207 18.7983C153.271 19.2679 152.444 19.9213 151.775 20.7192C151.044 21.64 150.491 22.6847 150.143 23.8022C149.729 25.1285 149.528 26.5097 149.546 27.897C149.379 30.4865 150.103 33.0558 151.602 35.1909C152.228 36.016 153.042 36.6783 153.984 37.1255C154.927 37.5727 155.967 37.7929 157.013 37.7612C158.169 37.7944 159.32 37.5383 160.348 37.0161C161.303 36.5147 162.164 35.859 162.897 35.0747L166.724 39.2105C165.538 40.6304 164.042 41.7727 162.348 42.5464C160.654 43.3201 158.804 43.7065 156.937 43.6812C155.005 43.693 153.085 43.3474 151.282 42.6626H151.275ZM435.702 43.0933V20.0151H441.391L441.871 24.0552H442.044C442.746 22.6426 443.812 21.4357 445.136 20.5552C446.197 19.8524 447.441 19.4647 448.72 19.4409C449.269 19.4297 449.818 19.469 450.359 19.5571C450.756 19.6285 451.144 19.7446 451.513 19.9058L450.373 25.8325C449.969 25.7125 449.559 25.6144 449.144 25.5386C448.707 25.4774 448.265 25.4489 447.824 25.4565C446.83 25.486 445.866 25.8067 445.059 26.3794C443.939 27.2211 443.104 28.3774 442.663 29.6948V43.0864L435.702 43.0933ZM352.864 43.0933V20.0151H358.554L359.033 24.0552H359.214C359.909 22.6475 360.966 21.4415 362.277 20.5552C363.349 19.8529 364.602 19.4655 365.889 19.4409C366.436 19.4305 366.982 19.4698 367.522 19.5571C367.918 19.6314 368.305 19.7474 368.675 19.9058L367.543 25.8325C367.084 25.696 366.683 25.6156 366.306 25.5386C365.869 25.4774 365.427 25.4489 364.986 25.4565C363.991 25.4828 363.027 25.8037 362.221 26.3794C361.101 27.2211 360.266 28.3774 359.825 29.6948V43.0864L352.864 43.0933ZM317.368 43.0933V29.6401C317.483 28.457 317.255 27.2646 316.701 26.2085C316.442 25.8865 316.104 25.6338 315.721 25.4702C315.338 25.3066 314.922 25.2385 314.506 25.272C313.706 25.2437 312.916 25.4482 312.234 25.8599C311.477 26.3313 310.769 26.8831 310.136 27.5073V43.0933H303.19V20.0151H308.879L309.358 22.9341H309.539C310.552 22.007 311.66 21.1818 312.845 20.48C314.132 19.7621 315.59 19.4034 317.069 19.4341C318.13 19.3432 319.203 19.5215 320.174 19.9536C321.145 20.3857 321.987 21.0574 322.619 21.9019C323.884 23.9585 324.481 26.3443 324.342 28.7446V43.0933H317.368ZM124.858 43.0933L118.96 32.1489H115.125V43.0933H108.172V12.7417H119.307C120.855 12.7351 122.399 12.8905 123.913 13.2065C125.262 13.4797 126.541 14.0147 127.678 14.7788C128.758 15.5227 129.633 16.5188 130.227 17.6772C130.901 19.086 131.229 20.633 131.172 22.189C131.261 24.1393 130.74 26.0698 129.678 27.7192C128.694 29.1543 127.309 30.2788 125.691 30.9595L132.686 43.0933H124.858ZM115.112 26.7212H118.724C120.214 26.82 121.692 26.412 122.913 25.5659C123.4 25.1508 123.784 24.6279 124.031 24.0415C124.278 23.4551 124.383 22.8221 124.337 22.189C124.402 21.5917 124.302 20.9869 124.052 20.439C123.802 19.891 123.409 19.414 122.913 19.0649C121.624 18.401 120.176 18.0962 118.724 18.1831H115.125L115.112 26.7212Z" fill="#1B294B"/>
<path d="M465.003 27.9932C463.942 27.9932 462.925 27.5715 462.175 26.8216C461.426 26.0716 461.004 25.0547 461.004 23.9941V3.99902C461.004 2.93842 461.426 1.92155 462.175 1.17159C462.925 0.421626 463.942 0 465.003 0H512.991C514.052 0 515.069 0.421626 515.819 1.17159C516.569 1.92155 516.99 2.93842 516.99 3.99902V23.9941C516.99 25.0547 516.569 26.0716 515.819 26.8216C515.069 27.5715 514.052 27.9932 512.991 27.9932H465.003ZM499.461 7.26775C498.7 7.5757 498.016 8.04985 497.462 8.65609C496.881 9.30227 496.443 10.0636 496.175 10.8899C495.558 12.8739 495.558 14.9982 496.175 16.9822C496.447 17.8219 496.885 18.5988 497.462 19.2668C498.014 19.8876 498.697 20.38 499.461 20.7059C501.109 21.375 502.951 21.375 504.599 20.7059C505.364 20.3813 506.047 19.89 506.598 19.2687C507.177 18.6006 507.616 17.8239 507.891 16.9841C508.21 16.0001 508.364 14.9704 508.348 13.936C508.364 12.9109 508.21 11.8897 507.891 10.9153C507.619 10.0859 507.179 9.3214 506.598 8.66975C506.046 8.05761 505.363 7.57859 504.599 7.26971C502.946 6.63174 501.114 6.63174 499.461 7.26971V7.26775ZM488.103 15.9395L490.772 20.95H494.291L491.137 15.3849C491.868 15.0748 492.492 14.5591 492.936 13.9009C493.409 13.145 493.644 12.2636 493.609 11.3722C493.632 10.6587 493.485 9.94978 493.18 9.30437C492.913 8.77043 492.516 8.31236 492.026 7.97266C491.514 7.62453 490.941 7.3817 490.335 7.25799C489.651 7.1144 488.954 7.04375 488.255 7.0471H483.239V20.9519H486.379V15.9414L488.103 15.9395ZM470.314 20.95H473.452V16.2343H475.391C476.097 16.2379 476.801 16.1476 477.482 15.9629C478.107 15.7902 478.695 15.499 479.21 15.1057C479.716 14.7141 480.122 14.2102 480.398 13.6334C480.702 12.9725 480.851 12.2501 480.833 11.5226C480.854 10.7934 480.709 10.069 480.409 9.40395C480.143 8.85149 479.742 8.375 479.244 8.01757C478.724 7.65466 478.137 7.40026 477.517 7.26971C476.82 7.11635 476.107 7.04191 475.393 7.0471H470.316L470.314 20.95ZM499.768 17.2712C499.165 16.2661 498.876 15.1044 498.936 13.9341C498.871 12.7854 499.161 11.645 499.768 10.6673C500.024 10.3058 500.364 10.0116 500.758 9.80815C501.151 9.60469 501.588 9.49768 502.031 9.49768C502.474 9.49768 502.911 9.60469 503.304 9.80815C503.698 10.0116 504.036 10.3058 504.292 10.6673C504.898 11.6453 505.188 12.7856 505.122 13.9341C505.183 15.1042 504.894 16.2659 504.292 17.2712C504.047 17.6477 503.713 17.9572 503.318 18.1713C502.923 18.3855 502.48 18.4974 502.031 18.4974C501.582 18.4974 501.139 18.3855 500.744 18.1713C500.349 17.9572 500.013 17.6477 499.768 17.2712ZM473.452 13.7388V9.54064H475.202C475.868 9.49732 476.531 9.65453 477.107 9.9917C477.337 10.1713 477.517 10.4052 477.631 10.6732C477.745 10.9412 477.789 11.2348 477.76 11.5245C477.76 13.0062 476.908 13.7427 475.202 13.7427L473.452 13.7388ZM486.379 13.4401V9.53478H487.997C488.653 9.49712 489.305 9.63762 489.887 9.94093C490.111 10.101 490.29 10.317 490.403 10.5677C490.516 10.8184 490.561 11.0946 490.534 11.3683C490.554 11.6588 490.505 11.9489 490.393 12.2177C490.281 12.4865 490.108 12.7264 489.887 12.9168C489.335 13.3016 488.669 13.4866 487.997 13.4401H486.379Z" fill="#00BFFF"/>
</svg>
