<?xml version="1.0" encoding="UTF-8"?>
<svg id="Layer_2" data-name="Layer 2" xmlns="http://www.w3.org/2000/svg" viewBox="0 0 500 500">
  <defs>
    <style>
      .cls-1 {
        fill: none;
      }

      .cls-1, .cls-2 {
        stroke-width: 0px;
      }

      .cls-2 {
        fill: #231f20;
      }
    </style>
  </defs>
  <g id="Layer_1-2" data-name="Layer 1">
    <g>
      <g>
        <rect class="cls-2" x="2.5" y="2.5" width="95" height="95"/>
        <rect class="cls-1" width="100" height="100"/>
      </g>
      <g>
        <rect class="cls-2" x="2.5" y="102.5" width="95" height="95"/>
        <rect class="cls-1" y="100" width="100" height="100"/>
      </g>
      <g>
        <rect class="cls-2" x="102.5" y="2.5" width="95" height="95"/>
        <rect class="cls-1" x="100" width="100" height="100"/>
      </g>
      <g>
        <rect class="cls-2" x="402.5" y="102.5" width="95" height="95"/>
        <rect class="cls-1" x="400" y="100" width="100" height="100"/>
      </g>
      <g>
        <rect class="cls-2" x="402.5" y="2.5" width="95" height="95"/>
        <rect class="cls-1" x="400" width="100" height="100"/>
      </g>
      <g>
        <rect class="cls-2" x="202.5" y="202.5" width="95" height="95"/>
        <rect class="cls-1" x="200" y="200" width="100" height="100"/>
      </g>
      <g>
        <rect class="cls-2" x="302.5" y="2.5" width="95" height="95"/>
        <rect class="cls-1" x="300" width="100" height="100"/>
      </g>
      <g>
        <rect class="cls-2" x="402.5" y="202.5" width="95" height="95"/>
        <rect class="cls-1" x="400" y="200" width="100" height="100"/>
      </g>
      <g>
        <rect class="cls-2" x="402.5" y="302.5" width="95" height="95"/>
        <rect class="cls-1" x="400" y="300" width="100" height="100"/>
      </g>
      <g>
        <rect class="cls-2" x="102.5" y="302.5" width="95" height="95"/>
        <rect class="cls-1" x="100" y="300" width="100" height="100"/>
      </g>
      <g>
        <rect class="cls-2" x="2.5" y="402.5" width="95" height="95"/>
        <rect class="cls-1" y="400" width="100" height="100"/>
      </g>
      <g>
        <rect class="cls-2" x="102.5" y="402.5" width="95" height="95"/>
        <rect class="cls-1" x="100" y="400" width="100" height="100"/>
      </g>
      <g>
        <rect class="cls-2" x="202.5" y="402.5" width="95" height="95"/>
        <rect class="cls-1" x="200" y="400" width="100" height="100"/>
      </g>
      <g>
        <rect class="cls-2" x="302.5" y="402.5" width="95" height="95"/>
        <rect class="cls-1" x="300" y="400" width="100" height="100"/>
      </g>
      <g>
        <rect class="cls-2" x="402.5" y="402.5" width="95" height="95"/>
        <rect class="cls-1" x="400" y="400" width="100" height="100"/>
      </g>
      <g>
        <rect class="cls-2" x="102.5" y="202.5" width="95" height="95"/>
        <rect class="cls-1" x="100" y="200" width="100" height="100"/>
      </g>
    </g>
  </g>
</svg>